<svg xmlns="http://www.w3.org/2000/svg" xmlns:xlink="http://www.w3.org/1999/xlink" contentStyleType="text/css" height="701px" preserveAspectRatio="none" style="width:852px;height:701px;background:#FFFFFF;" version="1.1" viewBox="0 0 852 701" width="852px" zoomAndPan="magnify"><defs/><g><!--cluster 2567a5ec9705eb7ac2c984033e06189d--><g id="cluster_2567a5ec9705eb7ac2c984033e06189d"><polygon fill="none" points="16,64.89,26,54.89,139,54.89,139,582.97,129,592.97,16,592.97,16,64.89" style="stroke:#181818;stroke-width:1.0;"/><line style="stroke:#181818;stroke-width:1.0;" x1="129" x2="139" y1="64.89" y2="54.89"/><line style="stroke:#181818;stroke-width:1.0;" x1="16" x2="129" y1="64.89" y2="64.89"/><line style="stroke:#181818;stroke-width:1.0;" x1="129" x2="129" y1="64.89" y2="592.97"/><text fill="#000000" font-family="sans-serif" font-size="14" font-weight="bold" lengthAdjust="spacing" textLength="35" x="56" y="80.8851">Web</text></g><!--cluster e8a48653851e28c69d0506508fb27fc5--><g id="cluster_e8a48653851e28c69d0506508fb27fc5"><polygon fill="none" points="225,16,235,6,611,6,611,582.97,601,592.97,225,592.97,225,16" style="stroke:#181818;stroke-width:1.0;"/><line style="stroke:#181818;stroke-width:1.0;" x1="601" x2="611" y1="16" y2="6"/><line style="stroke:#181818;stroke-width:1.0;" x1="225" x2="601" y1="16" y2="16"/><line style="stroke:#181818;stroke-width:1.0;" x1="601" x2="601" y1="16" y2="592.97"/><text fill="#000000" font-family="sans-serif" font-size="14" font-weight="bold" lengthAdjust="spacing" textLength="71" x="378.5" y="31.9951">Postgres</text></g><!--cluster 86a1b907d54bf7010394bf316e183e67--><g id="cluster_86a1b907d54bf7010394bf316e183e67"><polygon fill="none" points="635,48.6,645,38.6,835,38.6,835,582.97,825,592.97,635,592.97,635,48.6" style="stroke:#181818;stroke-width:1.0;"/><line style="stroke:#181818;stroke-width:1.0;" x1="825" x2="835" y1="48.6" y2="38.6"/><line style="stroke:#181818;stroke-width:1.0;" x1="635" x2="825" y1="48.6" y2="48.6"/><line style="stroke:#181818;stroke-width:1.0;" x1="825" x2="825" y1="48.6" y2="592.97"/><text fill="#000000" font-family="sans-serif" font-size="14" font-weight="bold" lengthAdjust="spacing" textLength="43" x="709.5" y="64.5951">Redis</text></g><!--entity 04a565d19766ebe0348853b17c395bd1--><g id="elem_04a565d19766ebe0348853b17c395bd1"><rect fill="#F1F1F1" height="78.8906" rx="2.5" ry="2.5" style="stroke:#181818;stroke-width:0.5;" width="74" x="34" y="94.89"/><rect fill="#F1F1F1" height="10" style="stroke:#181818;stroke-width:0.5;" width="15" x="88" y="99.89"/><rect fill="#F1F1F1" height="2" style="stroke:#181818;stroke-width:0.5;" width="4" x="86" y="101.89"/><rect fill="#F1F1F1" height="2" style="stroke:#181818;stroke-width:0.5;" width="4" x="86" y="105.89"/><text fill="#000000" font-family="sans-serif" font-size="14" font-weight="bold" lengthAdjust="spacing" textLength="34" x="49" y="127.8851">web</text><text fill="#000000" font-family="sans-serif" font-size="14" lengthAdjust="spacing" textLength="4" x="49" y="144.182">&#160;</text><text fill="#000000" font-family="sans-serif" font-size="14" lengthAdjust="spacing" textLength="4" x="49" y="160.4789">&#160;</text></g><!--entity fd433df176955d196b161b0a41a19970--><g id="elem_fd433df176955d196b161b0a41a19970"><ellipse cx="96" cy="312.68" fill="#F1F1F1" rx="8" ry="8" style="stroke:#181818;stroke-width:0.5;"/><text fill="#000000" font-family="sans-serif" font-size="14" lengthAdjust="spacing" textLength="36" x="78" y="342.6751">8000</text></g><!--entity 3d0acc563f879f71e3f0162fab271179--><g id="elem_3d0acc563f879f71e3f0162fab271179"><rect fill="#F1F1F1" height="39.2969" rx="2.5" ry="2.5" style="stroke:#181818;stroke-width:0.5;" width="76" x="32" y="537.68"/><polygon fill="#F1F1F1" points="91,542.68,91,556.68,103,556.68,103,548.68,97,542.68,91,542.68" style="stroke:#181818;stroke-width:0.5;"/><line style="stroke:#181818;stroke-width:0.5;" x1="97" x2="97" y1="542.68" y2="548.68"/><line style="stroke:#181818;stroke-width:0.5;" x1="103" x2="97" y1="548.68" y2="548.68"/><text fill="#000000" font-family="sans-serif" font-size="14" lengthAdjust="spacing" textLength="46" x="42" y="563.6751">/fallout</text></g><!--entity 086f471fbe3ab94b73c9798cd7d205b7--><g id="elem_086f471fbe3ab94b73c9798cd7d205b7"><rect fill="#F1F1F1" height="176.6719" rx="2.5" ry="2.5" style="stroke:#181818;stroke-width:0.5;" width="354" x="241" y="46"/><rect fill="#F1F1F1" height="10" style="stroke:#181818;stroke-width:0.5;" width="15" x="575" y="51"/><rect fill="#F1F1F1" height="2" style="stroke:#181818;stroke-width:0.5;" width="4" x="573" y="53"/><rect fill="#F1F1F1" height="2" style="stroke:#181818;stroke-width:0.5;" width="4" x="573" y="57"/><text fill="#000000" font-family="sans-serif" font-size="14" font-weight="bold" lengthAdjust="spacing" textLength="71" x="256" y="78.9951">postgres</text><text fill="#000000" font-family="sans-serif" font-size="14" lengthAdjust="spacing" textLength="4" x="256" y="95.292">&#160;</text><text fill="#000000" font-family="sans-serif" font-size="14" lengthAdjust="spacing" textLength="156" x="256" y="111.5889">image: postgres:latest</text><text fill="#000000" font-family="sans-serif" font-size="14" lengthAdjust="spacing" textLength="99" x="256" y="127.8857">restart: always</text><text fill="#000000" font-family="sans-serif" font-size="14" lengthAdjust="spacing" textLength="271" x="256" y="144.1826">environment: POSTGRES_USER=fallout</text><text fill="#000000" font-family="sans-serif" font-size="14" lengthAdjust="spacing" textLength="314" x="256" y="160.4795">environment: POSTGRES_PASSWORD=fallout</text><text fill="#000000" font-family="sans-serif" font-size="14" lengthAdjust="spacing" textLength="254" x="256" y="176.7764">environment: POSTGRES_DB=fallout</text><text fill="#000000" font-family="sans-serif" font-size="14" lengthAdjust="spacing" textLength="212" x="256" y="193.0732">environment: PGDATA=/fallout</text><text fill="#000000" font-family="sans-serif" font-size="14" lengthAdjust="spacing" textLength="4" x="256" y="209.3701">&#160;</text></g><!--entity 3e906356a758f3c88ac7b67f2b59567e--><g id="elem_3e906356a758f3c88ac7b67f2b59567e"><rect fill="#F1F1F1" height="39.2969" rx="2.5" ry="2.5" style="stroke:#181818;stroke-width:0.5;" width="76" x="380" y="537.68"/><polygon fill="#F1F1F1" points="439,542.68,439,556.68,451,556.68,451,548.68,445,542.68,439,542.68" style="stroke:#181818;stroke-width:0.5;"/><line style="stroke:#181818;stroke-width:0.5;" x1="445" x2="445" y1="542.68" y2="548.68"/><line style="stroke:#181818;stroke-width:0.5;" x1="451" x2="445" y1="548.68" y2="548.68"/><text fill="#000000" font-family="sans-serif" font-size="14" lengthAdjust="spacing" textLength="46" x="390" y="563.6751">/fallout</text></g><!--entity 3c217ea98bfddc0f9ff1c849de325d93--><g id="elem_3c217ea98bfddc0f9ff1c849de325d93"><rect fill="#F1F1F1" height="111.4844" rx="2.5" ry="2.5" style="stroke:#181818;stroke-width:0.5;" width="168" x="651" y="78.6"/><rect fill="#F1F1F1" height="10" style="stroke:#181818;stroke-width:0.5;" width="15" x="799" y="83.6"/><rect fill="#F1F1F1" height="2" style="stroke:#181818;stroke-width:0.5;" width="4" x="797" y="85.6"/><rect fill="#F1F1F1" height="2" style="stroke:#181818;stroke-width:0.5;" width="4" x="797" y="89.6"/><text fill="#000000" font-family="sans-serif" font-size="14" font-weight="bold" lengthAdjust="spacing" textLength="40" x="666" y="111.5951">redis</text><text fill="#000000" font-family="sans-serif" font-size="14" lengthAdjust="spacing" textLength="4" x="666" y="127.892">&#160;</text><text fill="#000000" font-family="sans-serif" font-size="14" lengthAdjust="spacing" textLength="128" x="666" y="144.1889">image: redis:latest</text><text fill="#000000" font-family="sans-serif" font-size="14" lengthAdjust="spacing" textLength="99" x="666" y="160.4857">restart: always</text><text fill="#000000" font-family="sans-serif" font-size="14" lengthAdjust="spacing" textLength="4" x="666" y="176.7826">&#160;</text></g><!--entity 29db62b73e58b452e056c8149214016f--><g id="elem_29db62b73e58b452e056c8149214016f"><rect fill="#F1F1F1" height="39.2969" rx="2.5" ry="2.5" style="stroke:#181818;stroke-width:0.5;" width="76" x="697" y="537.68"/><polygon fill="#F1F1F1" points="756,542.68,756,556.68,768,556.68,768,548.68,762,542.68,756,542.68" style="stroke:#181818;stroke-width:0.5;"/><line style="stroke:#181818;stroke-width:0.5;" x1="762" x2="762" y1="542.68" y2="548.68"/><line style="stroke:#181818;stroke-width:0.5;" x1="768" x2="762" y1="548.68" y2="548.68"/><text fill="#000000" font-family="sans-serif" font-size="14" lengthAdjust="spacing" textLength="46" x="707" y="563.6751">/fallout</text></g><!--entity 1624c420083928ef3e240dd88f2e52f0--><g id="elem_1624c420083928ef3e240dd88f2e52f0"><ellipse cx="182" cy="447.68" fill="#F1F1F1" rx="8" ry="8" style="stroke:#181818;stroke-width:0.5;"/><text fill="#000000" font-family="sans-serif" font-size="14" lengthAdjust="spacing" textLength="36" x="164" y="477.6751">8000</text></g><!--entity 58b9e70b65a77700ba66e9c64d6b9f89--><g id="elem_58b9e70b65a77700ba66e9c64d6b9f89"><rect fill="#F1F1F1" height="39.2969" rx="2.5" ry="2.5" style="stroke:#181818;stroke-width:0.5;" width="34" x="53" y="655.97"/><polygon fill="#F1F1F1" points="70,660.97,70,674.97,82,674.97,82,666.97,76,660.97,70,660.97" style="stroke:#181818;stroke-width:0.5;"/><line style="stroke:#181818;stroke-width:0.5;" x1="76" x2="76" y1="660.97" y2="666.97"/><line style="stroke:#181818;stroke-width:0.5;" x1="82" x2="76" y1="666.97" y2="666.97"/><text fill="#000000" font-family="sans-serif" font-size="14" lengthAdjust="spacing" textLength="4" x="63" y="681.9651">.</text></g><!--entity b23554fa851fd75b5f3c70591e2b9d2e--><g id="elem_b23554fa851fd75b5f3c70591e2b9d2e"><rect fill="#F1F1F1" height="39.2969" rx="2.5" ry="2.5" style="stroke:#181818;stroke-width:0.5;" width="78" x="379" y="655.97"/><polygon fill="#F1F1F1" points="440,660.97,440,674.97,452,674.97,452,666.97,446,660.97,440,660.97" style="stroke:#181818;stroke-width:0.5;"/><line style="stroke:#181818;stroke-width:0.5;" x1="446" x2="446" y1="660.97" y2="666.97"/><line style="stroke:#181818;stroke-width:0.5;" x1="452" x2="446" y1="666.97" y2="666.97"/><text fill="#000000" font-family="sans-serif" font-size="14" lengthAdjust="spacing" textLength="48" x="389" y="681.9651">pgdata</text></g><!--entity 312384a9c6abb025f036cb3abb76dfa0--><g id="elem_312384a9c6abb025f036cb3abb76dfa0"><rect fill="#F1F1F1" height="39.2969" rx="2.5" ry="2.5" style="stroke:#181818;stroke-width:0.5;" width="94" x="688" y="655.97"/><polygon fill="#F1F1F1" points="765,660.97,765,674.97,777,674.97,777,666.97,771,660.97,765,660.97" style="stroke:#181818;stroke-width:0.5;"/><line style="stroke:#181818;stroke-width:0.5;" x1="771" x2="771" y1="660.97" y2="666.97"/><line style="stroke:#181818;stroke-width:0.5;" x1="777" x2="771" y1="666.97" y2="666.97"/><text fill="#000000" font-family="sans-serif" font-size="14" lengthAdjust="spacing" textLength="64" x="698" y="681.9651">redisdata</text></g><!--link 04a565d19766ebe0348853b17c395bd1 to fd433df176955d196b161b0a41a19970--><g id="link_04a565d19766ebe0348853b17c395bd1_fd433df176955d196b161b0a41a19970"><path codeLine="39" d="M76.49,174.04 C82.49,216.42 91.7,281.34 94.88,303.75 " fill="none" id="04a565d19766ebe0348853b17c395bd1-fd433df176955d196b161b0a41a19970" style="stroke:#181818;stroke-width:1.0;"/></g><!--link fd433df176955d196b161b0a41a19970 to 1624c420083928ef3e240dd88f2e52f0--><g id="link_fd433df176955d196b161b0a41a19970_1624c420083928ef3e240dd88f2e52f0"><path codeLine="40" d="M101.12,321.6 C116.45,345.31 161.86,415.53 177.01,438.96 " fill="none" id="fd433df176955d196b161b0a41a19970-1624c420083928ef3e240dd88f2e52f0" style="stroke:#181818;stroke-width:1.0;"/></g><!--link 3d0acc563f879f71e3f0162fab271179 to 58b9e70b65a77700ba66e9c64d6b9f89--><g id="link_3d0acc563f879f71e3f0162fab271179_58b9e70b65a77700ba66e9c64d6b9f89"><path codeLine="41" d="M70,577.27 C70,598.89 70,634.06 70,655.69 " fill="none" id="3d0acc563f879f71e3f0162fab271179-58b9e70b65a77700ba66e9c64d6b9f89" style="stroke:#181818;stroke-width:1.0;"/><text fill="#000000" font-family="sans-serif" font-size="13" lengthAdjust="spacing" textLength="14" x="71" y="622.0369">rw</text></g><!--link 04a565d19766ebe0348853b17c395bd1 to 3d0acc563f879f71e3f0162fab271179--><g id="link_04a565d19766ebe0348853b17c395bd1_3d0acc563f879f71e3f0162fab271179"><path codeLine="42" d="M64.64,174.25 C60.09,204.09 54.38,246.37 52,283.68 C45.92,379.07 59.6873,487.2738 66.1973,531.5538 " fill="none" id="04a565d19766ebe0348853b17c395bd1-to-3d0acc563f879f71e3f0162fab271179" style="stroke:#181818;stroke-width:1.0;stroke-dasharray:7.0,7.0;"/><polygon fill="#181818" points="67.07,537.49,69.7184,528.0039,66.3427,532.5432,61.8034,529.1675,67.07,537.49" style="stroke:#181818;stroke-width:1.0;"/><text fill="#000000" font-family="sans-serif" font-size="13" lengthAdjust="spacing" textLength="23" x="53" y="384.7469">use</text></g><!--link 3e906356a758f3c88ac7b67f2b59567e to b23554fa851fd75b5f3c70591e2b9d2e--><g id="link_3e906356a758f3c88ac7b67f2b59567e_b23554fa851fd75b5f3c70591e2b9d2e"><path codeLine="43" d="M418,577.27 C418,598.89 418,634.06 418,655.69 " fill="none" id="3e906356a758f3c88ac7b67f2b59567e-b23554fa851fd75b5f3c70591e2b9d2e" style="stroke:#181818;stroke-width:1.0;"/><text fill="#000000" font-family="sans-serif" font-size="13" lengthAdjust="spacing" textLength="14" x="419" y="622.0369">rw</text></g><!--link 086f471fbe3ab94b73c9798cd7d205b7 to 3e906356a758f3c88ac7b67f2b59567e--><g id="link_086f471fbe3ab94b73c9798cd7d205b7_3e906356a758f3c88ac7b67f2b59567e"><path codeLine="44" d="M418,223.08 C418,324.05 418,476.94 418,531.33 " fill="none" id="086f471fbe3ab94b73c9798cd7d205b7-to-3e906356a758f3c88ac7b67f2b59567e" style="stroke:#181818;stroke-width:1.0;stroke-dasharray:7.0,7.0;"/><polygon fill="#181818" points="418,537.33,422,528.33,418,532.33,414,528.33,418,537.33" style="stroke:#181818;stroke-width:1.0;"/><text fill="#000000" font-family="sans-serif" font-size="13" lengthAdjust="spacing" textLength="23" x="419" y="384.7469">use</text></g><!--link 29db62b73e58b452e056c8149214016f to 312384a9c6abb025f036cb3abb76dfa0--><g id="link_29db62b73e58b452e056c8149214016f_312384a9c6abb025f036cb3abb76dfa0"><path codeLine="45" d="M735,577.27 C735,598.89 735,634.06 735,655.69 " fill="none" id="29db62b73e58b452e056c8149214016f-312384a9c6abb025f036cb3abb76dfa0" style="stroke:#181818;stroke-width:1.0;"/><text fill="#000000" font-family="sans-serif" font-size="13" lengthAdjust="spacing" textLength="14" x="736" y="622.0369">rw</text></g><!--link 3c217ea98bfddc0f9ff1c849de325d93 to 29db62b73e58b452e056c8149214016f--><g id="link_3c217ea98bfddc0f9ff1c849de325d93_29db62b73e58b452e056c8149214016f"><path codeLine="46" d="M735,190.38 C735,285.54 735,470.5 735,531.28 " fill="none" id="3c217ea98bfddc0f9ff1c849de325d93-to-29db62b73e58b452e056c8149214016f" style="stroke:#181818;stroke-width:1.0;stroke-dasharray:7.0,7.0;"/><polygon fill="#181818" points="735,537.28,739,528.28,735,532.28,731,528.28,735,537.28" style="stroke:#181818;stroke-width:1.0;"/><text fill="#000000" font-family="sans-serif" font-size="13" lengthAdjust="spacing" textLength="23" x="736" y="384.7469">use</text></g><!--SRC=[XLJRQXin47tVhrZyr1hYZYwZYo65b8Gy9jWfUIYbQAIHCVWIx4tTKlhlbJUsSGf6RwjbpimvHsSK5elrRZd_DL_DcjKwSJjuPXgqOTjAD3OWHsy1cMo8CdgdGIa68vnFxP-cZUlboth5gwu57T1W4juQmyIWj7EeIDYeF58IxRTcEDmn3OTDqtnlFdni1mu0-aavQQLI5jPutBSm98mW25e4uSlu9cowUGwnQmUVSYY4NxiUfnA46D6exApFLh3A88pCWQGLmlhcxq7IuthRpJQyxL7iWdO6bKF1qaNZ4o0O19SBB4VyJvSpMLkHYLKWhycgOeXtCTaa0SdskbuE_VVYviimut5x_3LUX8wtNLC-ko9Zt8R5BlpUDhpwET-iLyioOzm-FaoVxYTtqnzVftUJwuF42oMFDzFfyyFajb9s- -L2mVtjpTFDzT77_LrSSfSz68KcM7HPHUT2j6HibeI-H8DFxauupT-iTIO8yc0JQieM1AZYM5R2i72AZNrlhOfIM0xUKKufGlOvY-YqJwma9gzwQpVxvcU-zkTBfbuM8tqY8yljCJhIA1dGH2UqbqANpEGYvbqaIunqr1B0AIyTPyLIGqhEPSaeytaaHpsWjFLiWGm6Qoq0XR87FXgT3Fdi_1dWPPP25teKIOMeSoXPpCaYOJ6wh9iloIIV99-XUk4de19IEHtAW4044ZCe4wb4bAn9EK1JtSUhT5LVl5f1twNgLMrF-our0zjnyM0tg0iRZT9ezBdwEEpxlMvvqDHothEhNTI9NUsvEBAh3JsogmMtPrTBmv5TTUCExAf33-p-0G00]--></g></svg>