<svg xmlns="http://www.w3.org/2000/svg" xmlns:xlink="http://www.w3.org/1999/xlink" contentStyleType="text/css" height="799px" preserveAspectRatio="none" style="width:1485px;height:799px;background:#FFFFFF;" version="1.1" viewBox="0 0 1485 799" width="1485px" zoomAndPan="magnify"><defs/><g><!--cluster 2d2fd04d480003e336091c857a4c75de--><g id="cluster_2d2fd04d480003e336091c857a4c75de"><path d="M8.5,6 L63.5,6 A3.75,3.75 0 0 1 66,8.5 L73,28.2969 L1230.5,28.2969 A2.5,2.5 0 0 1 1233,30.7969 L1233,789.95 A2.5,2.5 0 0 1 1230.5,792.45 L8.5,792.45 A2.5,2.5 0 0 1 6,789.95 L6,8.5 A2.5,2.5 0 0 1 8.5,6 " fill="none" style="stroke:#000000;stroke-width:1.5;"/><line style="stroke:#000000;stroke-width:1.5;" x1="6" x2="73" y1="28.2969" y2="28.2969"/><text fill="#000000" font-family="sans-serif" font-size="14" font-weight="bold" lengthAdjust="spacing" textLength="54" x="10" y="20.9951">fallout/</text></g><!--cluster d5a8c15a25718119b7f410ae661ca9bd--><g id="cluster_d5a8c15a25718119b7f410ae661ca9bd"><path d="M527.5,202.89 L635.5,202.89 A3.75,3.75 0 0 1 638,205.39 L645,225.1869 L964.5,225.1869 A2.5,2.5 0 0 1 967,227.6869 L967,397.28 A2.5,2.5 0 0 1 964.5,399.78 L527.5,399.78 A2.5,2.5 0 0 1 525,397.28 L525,205.39 A2.5,2.5 0 0 1 527.5,202.89 " fill="none" style="stroke:#000000;stroke-width:1.5;"/><line style="stroke:#000000;stroke-width:1.5;" x1="525" x2="645" y1="225.1869" y2="225.1869"/><text fill="#000000" font-family="sans-serif" font-size="14" font-weight="bold" lengthAdjust="spacing" textLength="107" x="529" y="217.8851">management/</text></g><!--cluster 76d4462eeeaf19fc5c22229b1502c72a--><g id="cluster_76d4462eeeaf19fc5c22229b1502c72a"><path d="M551.5,245.89 L642.5,245.89 A3.75,3.75 0 0 1 645,248.39 L652,268.1869 L940.5,268.1869 A2.5,2.5 0 0 1 943,270.6869 L943,373.28 A2.5,2.5 0 0 1 940.5,375.78 L551.5,375.78 A2.5,2.5 0 0 1 549,373.28 L549,248.39 A2.5,2.5 0 0 1 551.5,245.89 " fill="none" style="stroke:#000000;stroke-width:1.5;"/><line style="stroke:#000000;stroke-width:1.5;" x1="549" x2="652" y1="268.1869" y2="268.1869"/><text fill="#000000" font-family="sans-serif" font-size="14" font-weight="bold" lengthAdjust="spacing" textLength="90" x="553" y="260.8851">commands/</text></g><!--cluster 32bafbfe2c21f0aa237ac515b7ed2e95--><g id="cluster_32bafbfe2c21f0aa237ac515b7ed2e95"><path d="M32.5,49 L141.5,49 A3.75,3.75 0 0 1 144,51.5 L151,71.2969 L157.5,71.2969 A2.5,2.5 0 0 1 160,73.7969 L160,176.39 A2.5,2.5 0 0 1 157.5,178.89 L32.5,178.89 A2.5,2.5 0 0 1 30,176.39 L30,51.5 A2.5,2.5 0 0 1 32.5,49 " fill="none" style="stroke:#000000;stroke-width:1.5;"/><line style="stroke:#000000;stroke-width:1.5;" x1="30" x2="151" y1="71.2969" y2="71.2969"/><text fill="#000000" font-family="sans-serif" font-size="14" font-weight="bold" lengthAdjust="spacing" textLength="108" x="34" y="63.9951">templatetags/</text></g><!--cluster cba6529a50824799a3d5b29ba05155d1--><g id="cluster_cba6529a50824799a3d5b29ba05155d1"><path d="M1259.5,49 L1292.5,49 A3.75,3.75 0 0 1 1295,51.5 L1302,71.2969 L1475.5,71.2969 A2.5,2.5 0 0 1 1478,73.7969 L1478,373.28 A2.5,2.5 0 0 1 1475.5,375.78 L1259.5,375.78 A2.5,2.5 0 0 1 1257,373.28 L1257,51.5 A2.5,2.5 0 0 1 1259.5,49 " fill="none" style="stroke:#000000;stroke-width:1.5;"/><line style="stroke:#000000;stroke-width:1.5;" x1="1257" x2="1302" y1="71.2969" y2="71.2969"/><text fill="#000000" font-family="sans-serif" font-size="14" font-weight="bold" lengthAdjust="spacing" textLength="32" x="1261" y="63.9951">rpg/</text></g><!--entity bcd37573c61ea13b58946ef45560431a--><g id="elem_bcd37573c61ea13b58946ef45560431a"><rect fill="#F1F1F1" height="78.8906" rx="2.5" ry="2.5" style="stroke:#181818;stroke-width:0.5;" width="93" x="833.5" y="697.56"/><rect fill="#F1F1F1" height="10" style="stroke:#181818;stroke-width:0.5;" width="15" x="906.5" y="702.56"/><rect fill="#F1F1F1" height="2" style="stroke:#181818;stroke-width:0.5;" width="4" x="904.5" y="704.56"/><rect fill="#F1F1F1" height="2" style="stroke:#181818;stroke-width:0.5;" width="4" x="904.5" y="708.56"/><text fill="#000000" font-family="sans-serif" font-size="14" font-weight="bold" lengthAdjust="spacing" textLength="53" x="848.5" y="730.5551">enums</text><text fill="#000000" font-family="sans-serif" font-size="14" lengthAdjust="spacing" textLength="4" x="848.5" y="746.852">&#160;</text><text fill="#000000" font-family="sans-serif" font-size="14" lengthAdjust="spacing" textLength="4" x="848.5" y="763.1489">&#160;</text></g><!--entity 86395306eafab82a72a3bc648124f8b7--><g id="elem_86395306eafab82a72a3bc648124f8b7"><rect fill="#F1F1F1" height="78.8906" rx="2.5" ry="2.5" style="stroke:#181818;stroke-width:0.5;" width="63" x="172.5" y="280.89"/><rect fill="#F1F1F1" height="10" style="stroke:#181818;stroke-width:0.5;" width="15" x="215.5" y="285.89"/><rect fill="#F1F1F1" height="2" style="stroke:#181818;stroke-width:0.5;" width="4" x="213.5" y="287.89"/><rect fill="#F1F1F1" height="2" style="stroke:#181818;stroke-width:0.5;" width="4" x="213.5" y="291.89"/><text fill="#000000" font-family="sans-serif" font-size="14" font-weight="bold" lengthAdjust="spacing" textLength="23" x="187.5" y="313.8851">api</text><text fill="#000000" font-family="sans-serif" font-size="14" lengthAdjust="spacing" textLength="4" x="187.5" y="330.182">&#160;</text><text fill="#000000" font-family="sans-serif" font-size="14" lengthAdjust="spacing" textLength="4" x="187.5" y="346.4789">&#160;</text></g><!--entity f3011ef36357fb88547ef3dc254f824f--><g id="elem_f3011ef36357fb88547ef3dc254f824f"><rect fill="#F1F1F1" height="78.8906" rx="2.5" ry="2.5" style="stroke:#181818;stroke-width:0.5;" width="118" x="937" y="558.67"/><rect fill="#F1F1F1" height="10" style="stroke:#181818;stroke-width:0.5;" width="15" x="1035" y="563.67"/><rect fill="#F1F1F1" height="2" style="stroke:#181818;stroke-width:0.5;" width="4" x="1033" y="565.67"/><rect fill="#F1F1F1" height="2" style="stroke:#181818;stroke-width:0.5;" width="4" x="1033" y="569.67"/><text fill="#000000" font-family="sans-serif" font-size="14" font-weight="bold" lengthAdjust="spacing" textLength="78" x="952" y="591.6651">constants</text><text fill="#000000" font-family="sans-serif" font-size="14" lengthAdjust="spacing" textLength="4" x="952" y="607.962">&#160;</text><text fill="#000000" font-family="sans-serif" font-size="14" lengthAdjust="spacing" textLength="4" x="952" y="624.2589">&#160;</text></g><!--entity d2009109864d63250151c2d4a7d2409f--><g id="elem_d2009109864d63250151c2d4a7d2409f"><rect fill="#F1F1F1" height="78.8906" rx="2.5" ry="2.5" style="stroke:#181818;stroke-width:0.5;" width="84" x="179" y="84"/><rect fill="#F1F1F1" height="10" style="stroke:#181818;stroke-width:0.5;" width="15" x="243" y="89"/><rect fill="#F1F1F1" height="2" style="stroke:#181818;stroke-width:0.5;" width="4" x="241" y="91"/><rect fill="#F1F1F1" height="2" style="stroke:#181818;stroke-width:0.5;" width="4" x="241" y="95"/><text fill="#000000" font-family="sans-serif" font-size="14" font-weight="bold" lengthAdjust="spacing" textLength="44" x="194" y="116.9951">patch</text><text fill="#000000" font-family="sans-serif" font-size="14" lengthAdjust="spacing" textLength="4" x="194" y="133.292">&#160;</text><text fill="#000000" font-family="sans-serif" font-size="14" lengthAdjust="spacing" textLength="4" x="194" y="149.5889">&#160;</text></g><!--entity 78d5804380e6cc83b7f9473b169e2a28--><g id="elem_78d5804380e6cc83b7f9473b169e2a28"><rect fill="#F1F1F1" height="78.8906" rx="2.5" ry="2.5" style="stroke:#181818;stroke-width:0.5;" width="86" x="1020" y="280.89"/><rect fill="#F1F1F1" height="10" style="stroke:#181818;stroke-width:0.5;" width="15" x="1086" y="285.89"/><rect fill="#F1F1F1" height="2" style="stroke:#181818;stroke-width:0.5;" width="4" x="1084" y="287.89"/><rect fill="#F1F1F1" height="2" style="stroke:#181818;stroke-width:0.5;" width="4" x="1084" y="291.89"/><text fill="#000000" font-family="sans-serif" font-size="14" font-weight="bold" lengthAdjust="spacing" textLength="46" x="1035" y="313.8851">forms</text><text fill="#000000" font-family="sans-serif" font-size="14" lengthAdjust="spacing" textLength="4" x="1035" y="330.182">&#160;</text><text fill="#000000" font-family="sans-serif" font-size="14" lengthAdjust="spacing" textLength="4" x="1035" y="346.4789">&#160;</text></g><!--entity 41f8c7ca40f08a9c934e35dea928e155--><g id="elem_41f8c7ca40f08a9c934e35dea928e155"><rect fill="#F1F1F1" height="78.8906" rx="2.5" ry="2.5" style="stroke:#181818;stroke-width:0.5;" width="70" x="298" y="84"/><rect fill="#F1F1F1" height="10" style="stroke:#181818;stroke-width:0.5;" width="15" x="348" y="89"/><rect fill="#F1F1F1" height="2" style="stroke:#181818;stroke-width:0.5;" width="4" x="346" y="91"/><rect fill="#F1F1F1" height="2" style="stroke:#181818;stroke-width:0.5;" width="4" x="346" y="95"/><text fill="#000000" font-family="sans-serif" font-size="14" font-weight="bold" lengthAdjust="spacing" textLength="30" x="313" y="116.9951">urls</text><text fill="#000000" font-family="sans-serif" font-size="14" lengthAdjust="spacing" textLength="4" x="313" y="133.292">&#160;</text><text fill="#000000" font-family="sans-serif" font-size="14" lengthAdjust="spacing" textLength="4" x="313" y="149.5889">&#160;</text></g><!--entity c6b4968681175fc0e6ec68dfbf0d369a--><g id="elem_c6b4968681175fc0e6ec68dfbf0d369a"><rect fill="#F1F1F1" height="78.8906" rx="2.5" ry="2.5" style="stroke:#181818;stroke-width:0.5;" width="124" x="270" y="280.89"/><rect fill="#F1F1F1" height="10" style="stroke:#181818;stroke-width:0.5;" width="15" x="374" y="285.89"/><rect fill="#F1F1F1" height="2" style="stroke:#181818;stroke-width:0.5;" width="4" x="372" y="287.89"/><rect fill="#F1F1F1" height="2" style="stroke:#181818;stroke-width:0.5;" width="4" x="372" y="291.89"/><text fill="#000000" font-family="sans-serif" font-size="14" font-weight="bold" lengthAdjust="spacing" textLength="84" x="285" y="313.8851">translation</text><text fill="#000000" font-family="sans-serif" font-size="14" lengthAdjust="spacing" textLength="4" x="285" y="330.182">&#160;</text><text fill="#000000" font-family="sans-serif" font-size="14" lengthAdjust="spacing" textLength="4" x="285" y="346.4789">&#160;</text></g><!--entity 41f5f9194fdc02620372393b015cd2ef--><g id="elem_41f5f9194fdc02620372393b015cd2ef"><rect fill="#F1F1F1" height="78.8906" rx="2.5" ry="2.5" style="stroke:#181818;stroke-width:0.5;" width="86" x="941" y="84"/><rect fill="#F1F1F1" height="10" style="stroke:#181818;stroke-width:0.5;" width="15" x="1007" y="89"/><rect fill="#F1F1F1" height="2" style="stroke:#181818;stroke-width:0.5;" width="4" x="1005" y="91"/><rect fill="#F1F1F1" height="2" style="stroke:#181818;stroke-width:0.5;" width="4" x="1005" y="95"/><text fill="#000000" font-family="sans-serif" font-size="14" font-weight="bold" lengthAdjust="spacing" textLength="46" x="956" y="116.9951">views</text><text fill="#000000" font-family="sans-serif" font-size="14" lengthAdjust="spacing" textLength="4" x="956" y="133.292">&#160;</text><text fill="#000000" font-family="sans-serif" font-size="14" lengthAdjust="spacing" textLength="4" x="956" y="149.5889">&#160;</text></g><!--entity 39f8848e2ff83f75ae0e0860ba5a3a7e--><g id="elem_39f8848e2ff83f75ae0e0860ba5a3a7e"><rect fill="#F1F1F1" height="78.8906" rx="2.5" ry="2.5" style="stroke:#181818;stroke-width:0.5;" width="80" x="429" y="280.89"/><rect fill="#F1F1F1" height="10" style="stroke:#181818;stroke-width:0.5;" width="15" x="489" y="285.89"/><rect fill="#F1F1F1" height="2" style="stroke:#181818;stroke-width:0.5;" width="4" x="487" y="287.89"/><rect fill="#F1F1F1" height="2" style="stroke:#181818;stroke-width:0.5;" width="4" x="487" y="291.89"/><text fill="#000000" font-family="sans-serif" font-size="14" font-weight="bold" lengthAdjust="spacing" textLength="40" x="444" y="313.8851">tests</text><text fill="#000000" font-family="sans-serif" font-size="14" lengthAdjust="spacing" textLength="4" x="444" y="330.182">&#160;</text><text fill="#000000" font-family="sans-serif" font-size="14" lengthAdjust="spacing" textLength="4" x="444" y="346.4789">&#160;</text></g><!--entity e92d4b094c4cbb8da199280ef469418f--><g id="elem_e92d4b094c4cbb8da199280ef469418f"><rect fill="#F1F1F1" height="78.8906" rx="2.5" ry="2.5" style="stroke:#181818;stroke-width:0.5;" width="78" x="22" y="280.89"/><rect fill="#F1F1F1" height="10" style="stroke:#181818;stroke-width:0.5;" width="15" x="80" y="285.89"/><rect fill="#F1F1F1" height="2" style="stroke:#181818;stroke-width:0.5;" width="4" x="78" y="287.89"/><rect fill="#F1F1F1" height="2" style="stroke:#181818;stroke-width:0.5;" width="4" x="78" y="291.89"/><text fill="#000000" font-family="sans-serif" font-size="14" font-weight="bold" lengthAdjust="spacing" textLength="38" x="37" y="313.8851">apps</text><text fill="#000000" font-family="sans-serif" font-size="14" lengthAdjust="spacing" textLength="4" x="37" y="330.182">&#160;</text><text fill="#000000" font-family="sans-serif" font-size="14" lengthAdjust="spacing" textLength="4" x="37" y="346.4789">&#160;</text></g><!--entity a8300c6470e93fa3cbb4473226d350ad--><g id="elem_a8300c6470e93fa3cbb4473226d350ad"><rect fill="#F1F1F1" height="78.8906" rx="2.5" ry="2.5" style="stroke:#181818;stroke-width:0.5;" width="97" x="768.5" y="419.78"/><rect fill="#F1F1F1" height="10" style="stroke:#181818;stroke-width:0.5;" width="15" x="845.5" y="424.78"/><rect fill="#F1F1F1" height="2" style="stroke:#181818;stroke-width:0.5;" width="4" x="843.5" y="426.78"/><rect fill="#F1F1F1" height="2" style="stroke:#181818;stroke-width:0.5;" width="4" x="843.5" y="430.78"/><text fill="#000000" font-family="sans-serif" font-size="14" font-weight="bold" lengthAdjust="spacing" textLength="57" x="783.5" y="452.7751">models</text><text fill="#000000" font-family="sans-serif" font-size="14" lengthAdjust="spacing" textLength="4" x="783.5" y="469.072">&#160;</text><text fill="#000000" font-family="sans-serif" font-size="14" lengthAdjust="spacing" textLength="4" x="783.5" y="485.3689">&#160;</text></g><!--entity 1c7b3f3c4ab8a28cb6dfac9fca0ba10c--><g id="elem_1c7b3f3c4ab8a28cb6dfac9fca0ba10c"><rect fill="#F1F1F1" height="78.8906" rx="2.5" ry="2.5" style="stroke:#181818;stroke-width:0.5;" width="87" x="1114.5" y="84"/><rect fill="#F1F1F1" height="10" style="stroke:#181818;stroke-width:0.5;" width="15" x="1181.5" y="89"/><rect fill="#F1F1F1" height="2" style="stroke:#181818;stroke-width:0.5;" width="4" x="1179.5" y="91"/><rect fill="#F1F1F1" height="2" style="stroke:#181818;stroke-width:0.5;" width="4" x="1179.5" y="95"/><text fill="#000000" font-family="sans-serif" font-size="14" font-weight="bold" lengthAdjust="spacing" textLength="47" x="1129.5" y="116.9951">admin</text><text fill="#000000" font-family="sans-serif" font-size="14" lengthAdjust="spacing" textLength="4" x="1129.5" y="133.292">&#160;</text><text fill="#000000" font-family="sans-serif" font-size="14" lengthAdjust="spacing" textLength="4" x="1129.5" y="149.5889">&#160;</text></g><!--entity 5550f90bd28d889cab84c668b2ecacc5--><g id="elem_5550f90bd28d889cab84c668b2ecacc5"><rect fill="#F1F1F1" height="78.8906" rx="2.5" ry="2.5" style="stroke:#181818;stroke-width:0.5;" width="92" x="835" y="280.89"/><rect fill="#F1F1F1" height="10" style="stroke:#181818;stroke-width:0.5;" width="15" x="907" y="285.89"/><rect fill="#F1F1F1" height="2" style="stroke:#181818;stroke-width:0.5;" width="4" x="905" y="287.89"/><rect fill="#F1F1F1" height="2" style="stroke:#181818;stroke-width:0.5;" width="4" x="905" y="291.89"/><text fill="#000000" font-family="sans-serif" font-size="14" font-weight="bold" lengthAdjust="spacing" textLength="52" x="850" y="313.8851">export</text><text fill="#000000" font-family="sans-serif" font-size="14" lengthAdjust="spacing" textLength="4" x="850" y="330.182">&#160;</text><text fill="#000000" font-family="sans-serif" font-size="14" lengthAdjust="spacing" textLength="4" x="850" y="346.4789">&#160;</text></g><!--entity 4b1a4b27253e5b3df10f7adf9a432c13--><g id="elem_4b1a4b27253e5b3df10f7adf9a432c13"><rect fill="#F1F1F1" height="78.8906" rx="2.5" ry="2.5" style="stroke:#181818;stroke-width:0.5;" width="108" x="565" y="280.89"/><rect fill="#F1F1F1" height="10" style="stroke:#181818;stroke-width:0.5;" width="15" x="653" y="285.89"/><rect fill="#F1F1F1" height="2" style="stroke:#181818;stroke-width:0.5;" width="4" x="651" y="287.89"/><rect fill="#F1F1F1" height="2" style="stroke:#181818;stroke-width:0.5;" width="4" x="651" y="291.89"/><text fill="#000000" font-family="sans-serif" font-size="14" font-weight="bold" lengthAdjust="spacing" textLength="68" x="580" y="313.8851">creature</text><text fill="#000000" font-family="sans-serif" font-size="14" lengthAdjust="spacing" textLength="4" x="580" y="330.182">&#160;</text><text fill="#000000" font-family="sans-serif" font-size="14" lengthAdjust="spacing" textLength="4" x="580" y="346.4789">&#160;</text></g><!--entity fdf0b500bd96a433bc884a8104c7211d--><g id="elem_fdf0b500bd96a433bc884a8104c7211d"><rect fill="#F1F1F1" height="78.8906" rx="2.5" ry="2.5" style="stroke:#181818;stroke-width:0.5;" width="91" x="708.5" y="280.89"/><rect fill="#F1F1F1" height="10" style="stroke:#181818;stroke-width:0.5;" width="15" x="779.5" y="285.89"/><rect fill="#F1F1F1" height="2" style="stroke:#181818;stroke-width:0.5;" width="4" x="777.5" y="287.89"/><rect fill="#F1F1F1" height="2" style="stroke:#181818;stroke-width:0.5;" width="4" x="777.5" y="291.89"/><text fill="#000000" font-family="sans-serif" font-size="14" font-weight="bold" lengthAdjust="spacing" textLength="51" x="723.5" y="313.8851">import</text><text fill="#000000" font-family="sans-serif" font-size="14" lengthAdjust="spacing" textLength="4" x="723.5" y="330.182">&#160;</text><text fill="#000000" font-family="sans-serif" font-size="14" lengthAdjust="spacing" textLength="4" x="723.5" y="346.4789">&#160;</text></g><!--entity b1685cef307e79f6b403353481c72bc5--><g id="elem_b1685cef307e79f6b403353481c72bc5"><rect fill="#F1F1F1" height="78.8906" rx="2.5" ry="2.5" style="stroke:#181818;stroke-width:0.5;" width="98" x="46" y="84"/><rect fill="#F1F1F1" height="10" style="stroke:#181818;stroke-width:0.5;" width="15" x="124" y="89"/><rect fill="#F1F1F1" height="2" style="stroke:#181818;stroke-width:0.5;" width="4" x="122" y="91"/><rect fill="#F1F1F1" height="2" style="stroke:#181818;stroke-width:0.5;" width="4" x="122" y="95"/><text fill="#000000" font-family="sans-serif" font-size="14" font-weight="bold" lengthAdjust="spacing" textLength="58" x="61" y="116.9951">custom</text><text fill="#000000" font-family="sans-serif" font-size="14" lengthAdjust="spacing" textLength="4" x="61" y="133.292">&#160;</text><text fill="#000000" font-family="sans-serif" font-size="14" lengthAdjust="spacing" textLength="4" x="61" y="149.5889">&#160;</text></g><!--entity 11334ac8a4b625e80a858eacd7e6d83b--><g id="elem_11334ac8a4b625e80a858eacd7e6d83b"><rect fill="#F1F1F1" height="78.8906" rx="2.5" ry="2.5" style="stroke:#181818;stroke-width:0.5;" width="84" x="1273" y="84"/><rect fill="#F1F1F1" height="10" style="stroke:#181818;stroke-width:0.5;" width="15" x="1337" y="89"/><rect fill="#F1F1F1" height="2" style="stroke:#181818;stroke-width:0.5;" width="4" x="1335" y="91"/><rect fill="#F1F1F1" height="2" style="stroke:#181818;stroke-width:0.5;" width="4" x="1335" y="95"/><text fill="#000000" font-family="sans-serif" font-size="14" font-weight="bold" lengthAdjust="spacing" textLength="44" x="1288" y="116.9951">patch</text><text fill="#000000" font-family="sans-serif" font-size="14" lengthAdjust="spacing" textLength="4" x="1288" y="133.292">&#160;</text><text fill="#000000" font-family="sans-serif" font-size="14" lengthAdjust="spacing" textLength="4" x="1288" y="149.5889">&#160;</text></g><!--entity 05b7e5ec4ba2a9226a17758d3095f0d4--><g id="elem_05b7e5ec4ba2a9226a17758d3095f0d4"><rect fill="#F1F1F1" height="78.8906" rx="2.5" ry="2.5" style="stroke:#181818;stroke-width:0.5;" width="70" x="1392" y="84"/><rect fill="#F1F1F1" height="10" style="stroke:#181818;stroke-width:0.5;" width="15" x="1442" y="89"/><rect fill="#F1F1F1" height="2" style="stroke:#181818;stroke-width:0.5;" width="4" x="1440" y="91"/><rect fill="#F1F1F1" height="2" style="stroke:#181818;stroke-width:0.5;" width="4" x="1440" y="95"/><text fill="#000000" font-family="sans-serif" font-size="14" font-weight="bold" lengthAdjust="spacing" textLength="30" x="1407" y="116.9951">urls</text><text fill="#000000" font-family="sans-serif" font-size="14" lengthAdjust="spacing" textLength="4" x="1407" y="133.292">&#160;</text><text fill="#000000" font-family="sans-serif" font-size="14" lengthAdjust="spacing" textLength="4" x="1407" y="149.5889">&#160;</text></g><!--entity d379b9ad7f09bc3b2fa459de207b0f95--><g id="elem_d379b9ad7f09bc3b2fa459de207b0f95"><rect fill="#F1F1F1" height="78.8906" rx="2.5" ry="2.5" style="stroke:#181818;stroke-width:0.5;" width="89" x="1272.5" y="280.89"/><rect fill="#F1F1F1" height="10" style="stroke:#181818;stroke-width:0.5;" width="15" x="1341.5" y="285.89"/><rect fill="#F1F1F1" height="2" style="stroke:#181818;stroke-width:0.5;" width="4" x="1339.5" y="287.89"/><rect fill="#F1F1F1" height="2" style="stroke:#181818;stroke-width:0.5;" width="4" x="1339.5" y="291.89"/><text fill="#000000" font-family="sans-serif" font-size="14" font-weight="bold" lengthAdjust="spacing" textLength="49" x="1287.5" y="313.8851">celery</text><text fill="#000000" font-family="sans-serif" font-size="14" lengthAdjust="spacing" textLength="4" x="1287.5" y="330.182">&#160;</text><text fill="#000000" font-family="sans-serif" font-size="14" lengthAdjust="spacing" textLength="4" x="1287.5" y="346.4789">&#160;</text></g><!--link 86395306eafab82a72a3bc648124f8b7 to bcd37573c61ea13b58946ef45560431a--><g id="link_86395306eafab82a72a3bc648124f8b7_bcd37573c61ea13b58946ef45560431a"><path codeLine="107" d="M219.89,359.87 C228,376.12 239.11,394.35 253,407.78 C432.07,580.96 715.0673,683.8756 827.4273,719.9556 " fill="none" id="86395306eafab82a72a3bc648124f8b7-to-bcd37573c61ea13b58946ef45560431a" style="stroke:#181818;stroke-width:1.0;"/><polygon fill="#181818" points="833.14,721.79,825.7939,715.2299,828.3794,720.2613,823.348,722.8469,833.14,721.79" style="stroke:#181818;stroke-width:1.0;"/></g><!--link 86395306eafab82a72a3bc648124f8b7 to a8300c6470e93fa3cbb4473226d350ad--><g id="link_86395306eafab82a72a3bc648124f8b7_a8300c6470e93fa3cbb4473226d350ad"><path codeLine="108" d="M216.05,359.87 C223.69,377.6 235.51,397.03 253,407.78 C277.26,422.69 480.63,417.35 509,419.78 C600.81,427.65 701.4517,441.3015 762.1117,450.0715 " fill="none" id="86395306eafab82a72a3bc648124f8b7-to-a8300c6470e93fa3cbb4473226d350ad" style="stroke:#181818;stroke-width:1.0;"/><polygon fill="#181818" points="768.05,450.93,759.715,445.6834,763.1015,450.2146,758.5703,453.601,768.05,450.93" style="stroke:#181818;stroke-width:1.0;"/></g><!--link f3011ef36357fb88547ef3dc254f824f to bcd37573c61ea13b58946ef45560431a--><g id="link_f3011ef36357fb88547ef3dc254f824f_bcd37573c61ea13b58946ef45560431a"><path codeLine="109" d="M963.07,637.98 C947.26,656.63 932.259,674.3325 916.489,692.9425 " fill="none" id="f3011ef36357fb88547ef3dc254f824f-to-bcd37573c61ea13b58946ef45560431a" style="stroke:#181818;stroke-width:1.0;"/><polygon fill="#181818" points="912.61,697.52,921.4801,693.2397,915.8425,693.7054,915.3768,688.0678,912.61,697.52" style="stroke:#181818;stroke-width:1.0;"/></g><!--link 78d5804380e6cc83b7f9473b169e2a28 to bcd37573c61ea13b58946ef45560431a--><g id="link_78d5804380e6cc83b7f9473b169e2a28_bcd37573c61ea13b58946ef45560431a"><path codeLine="110" d="M1034.03,359.95 C1001.4,405.25 949.01,483.73 919,558.67 C900.66,604.47 891.0423,654.6037 885.6523,691.2837 " fill="none" id="78d5804380e6cc83b7f9473b169e2a28-to-bcd37573c61ea13b58946ef45560431a" style="stroke:#181818;stroke-width:1.0;"/><polygon fill="#181818" points="884.78,697.22,890.046,688.8972,885.5069,692.2731,882.131,687.7341,884.78,697.22" style="stroke:#181818;stroke-width:1.0;"/></g><!--link 78d5804380e6cc83b7f9473b169e2a28 to a8300c6470e93fa3cbb4473226d350ad--><g id="link_78d5804380e6cc83b7f9473b169e2a28_a8300c6470e93fa3cbb4473226d350ad"><path codeLine="111" d="M1041.3,360.01 C1029.38,377.54 1012.95,396.77 993,407.78 C953.42,429.62 935.24,406.59 892,419.78 C883.32,422.42 879.8828,423.4936 871.4128,427.4636 " fill="none" id="78d5804380e6cc83b7f9473b169e2a28-to-a8300c6470e93fa3cbb4473226d350ad" style="stroke:#181818;stroke-width:1.0;"/><polygon fill="#181818" points="865.98,430.01,875.8269,429.8122,870.5074,427.888,872.4316,422.5685,865.98,430.01" style="stroke:#181818;stroke-width:1.0;"/></g><!--link c6b4968681175fc0e6ec68dfbf0d369a to a8300c6470e93fa3cbb4473226d350ad--><g id="link_c6b4968681175fc0e6ec68dfbf0d369a_a8300c6470e93fa3cbb4473226d350ad"><path codeLine="112" d="M357.96,360.02 C371.85,377.55 390.53,396.77 412,407.78 C450.66,427.59 465.89,414.42 509,419.78 C600.58,431.16 701.5063,443.7759 762.2363,451.3659 " fill="none" id="c6b4968681175fc0e6ec68dfbf0d369a-to-a8300c6470e93fa3cbb4473226d350ad" style="stroke:#181818;stroke-width:1.0;"/><polygon fill="#181818" points="768.19,452.11,759.7555,447.0247,763.2286,451.4899,758.7634,454.963,768.19,452.11" style="stroke:#181818;stroke-width:1.0;"/></g><!--link 41f5f9194fdc02620372393b015cd2ef to bcd37573c61ea13b58946ef45560431a--><g id="link_41f5f9194fdc02620372393b015cd2ef_bcd37573c61ea13b58946ef45560431a"><path codeLine="113" d="M940.87,129.97 C842.49,142.36 593.87,172.39 385,186.89 C372.25,187.77 163.88,185.69 155,194.89 C122.13,228.92 134.94,364.93 155,407.78 C176.62,453.95 421.48,621.84 456,637.56 C585.13,696.34 746.951,721.15 827.231,730.58 " fill="none" id="41f5f9194fdc02620372393b015cd2ef-to-bcd37573c61ea13b58946ef45560431a" style="stroke:#181818;stroke-width:1.0;"/><polygon fill="#181818" points="833.19,731.28,824.7181,726.2574,828.2241,730.6967,823.7848,734.2027,833.19,731.28" style="stroke:#181818;stroke-width:1.0;"/></g><!--link 41f5f9194fdc02620372393b015cd2ef to a8300c6470e93fa3cbb4473226d350ad--><g id="link_41f5f9194fdc02620372393b015cd2ef_a8300c6470e93fa3cbb4473226d350ad"><path codeLine="114" d="M990.76,163.07 C998.93,223.48 1004.78,340.35 943,407.78 C927.27,424.95 913.85,411.74 892,419.78 C883.35,422.96 879.8102,424.2851 871.2602,428.4251 " fill="none" id="41f5f9194fdc02620372393b015cd2ef-to-a8300c6470e93fa3cbb4473226d350ad" style="stroke:#181818;stroke-width:1.0;"/><polygon fill="#181818" points="865.86,431.04,875.7036,430.7179,870.3602,428.861,872.2171,423.5176,865.86,431.04" style="stroke:#181818;stroke-width:1.0;"/></g><!--link 41f5f9194fdc02620372393b015cd2ef to 78d5804380e6cc83b7f9473b169e2a28--><g id="link_41f5f9194fdc02620372393b015cd2ef_78d5804380e6cc83b7f9473b169e2a28"><path codeLine="115" d="M999.61,162.95 C1013.41,197 1031.1958,240.8795 1045.0358,275.0195 " fill="none" id="41f5f9194fdc02620372393b015cd2ef-to-78d5804380e6cc83b7f9473b169e2a28" style="stroke:#181818;stroke-width:1.0;"/><polygon fill="#181818" points="1047.29,280.58,1047.6157,270.7365,1045.4115,275.9463,1040.2018,273.7421,1047.29,280.58" style="stroke:#181818;stroke-width:1.0;"/></g><!--link 5550f90bd28d889cab84c668b2ecacc5 to a8300c6470e93fa3cbb4473226d350ad--><g id="link_5550f90bd28d889cab84c668b2ecacc5_a8300c6470e93fa3cbb4473226d350ad"><path codeLine="116" d="M862.83,360.19 C854.11,378.85 846.231,395.6946 837.531,414.3046 " fill="none" id="5550f90bd28d889cab84c668b2ecacc5-to-a8300c6470e93fa3cbb4473226d350ad" style="stroke:#181818;stroke-width:1.0;"/><polygon fill="#181818" points="834.99,419.74,842.4251,413.2809,837.1075,415.2105,835.1779,409.8929,834.99,419.74" style="stroke:#181818;stroke-width:1.0;"/></g><!--link 4b1a4b27253e5b3df10f7adf9a432c13 to a8300c6470e93fa3cbb4473226d350ad--><g id="link_4b1a4b27253e5b3df10f7adf9a432c13_a8300c6470e93fa3cbb4473226d350ad"><path codeLine="117" d="M644.59,359.97 C657.03,376.44 673.15,394.8 691,407.78 C714.06,424.54 737.777,434.8354 762.387,443.0254 " fill="none" id="4b1a4b27253e5b3df10f7adf9a432c13-to-a8300c6470e93fa3cbb4473226d350ad" style="stroke:#181818;stroke-width:1.0;"/><polygon fill="#181818" points="768.08,444.92,760.8035,438.2828,763.3358,443.3412,758.2774,445.8735,768.08,444.92" style="stroke:#181818;stroke-width:1.0;"/></g><!--link fdf0b500bd96a433bc884a8104c7211d to a8300c6470e93fa3cbb4473226d350ad--><g id="link_fdf0b500bd96a433bc884a8104c7211d_a8300c6470e93fa3cbb4473226d350ad"><path codeLine="118" d="M771.88,360.19 C780.47,378.85 788.2227,395.679 796.7827,414.289 " fill="none" id="fdf0b500bd96a433bc884a8104c7211d-to-a8300c6470e93fa3cbb4473226d350ad" style="stroke:#181818;stroke-width:1.0;"/><polygon fill="#181818" points="799.29,419.74,799.1631,409.892,797.2006,415.1975,791.8951,413.235,799.29,419.74" style="stroke:#181818;stroke-width:1.0;"/></g><!--link 39f8848e2ff83f75ae0e0860ba5a3a7e to a8300c6470e93fa3cbb4473226d350ad--><g id="link_39f8848e2ff83f75ae0e0860ba5a3a7e_a8300c6470e93fa3cbb4473226d350ad"><path codeLine="119" d="M495.63,359.87 C509.55,377.15 528.06,396.2 549,407.78 C618.5,446.21 705.9943,455.7017 762.1943,457.8417 " fill="none" id="39f8848e2ff83f75ae0e0860ba5a3a7e-to-a8300c6470e93fa3cbb4473226d350ad" style="stroke:#181818;stroke-width:1.0;"/><polygon fill="#181818" points="768.19,458.07,759.3487,453.7304,763.1936,457.8797,759.0443,461.7246,768.19,458.07" style="stroke:#181818;stroke-width:1.0;"/></g><!--link a8300c6470e93fa3cbb4473226d350ad to f3011ef36357fb88547ef3dc254f824f--><g id="link_a8300c6470e93fa3cbb4473226d350ad_f3011ef36357fb88547ef3dc254f824f"><path codeLine="120" d="M865.91,497.63 C890.55,516.47 915.6242,535.6448 940.5042,554.6748 " fill="none" id="a8300c6470e93fa3cbb4473226d350ad-to-f3011ef36357fb88547ef3dc254f824f" style="stroke:#181818;stroke-width:1.0;"/><polygon fill="#181818" points="945.27,558.32,940.5515,549.675,941.2985,555.2823,935.6912,556.0294,945.27,558.32" style="stroke:#181818;stroke-width:1.0;"/></g><!--link a8300c6470e93fa3cbb4473226d350ad to bcd37573c61ea13b58946ef45560431a--><g id="link_a8300c6470e93fa3cbb4473226d350ad_bcd37573c61ea13b58946ef45560431a"><path codeLine="121" d="M825.89,499.15 C837.9,551.71 857.834,638.9706 869.814,691.4206 " fill="none" id="a8300c6470e93fa3cbb4473226d350ad-to-bcd37573c61ea13b58946ef45560431a" style="stroke:#181818;stroke-width:1.0;"/><polygon fill="#181818" points="871.15,697.27,873.0455,687.6053,870.0366,692.3955,865.2464,689.3867,871.15,697.27" style="stroke:#181818;stroke-width:1.0;"/></g><!--link 1c7b3f3c4ab8a28cb6dfac9fca0ba10c to f3011ef36357fb88547ef3dc254f824f--><g id="link_1c7b3f3c4ab8a28cb6dfac9fca0ba10c_f3011ef36357fb88547ef3dc254f824f"><path codeLine="122" d="M1164.31,163.04 C1171.81,218.99 1179.76,324.97 1149,407.78 C1126.7,467.8 1081.5432,518.9399 1044.8532,554.0799 " fill="none" id="1c7b3f3c4ab8a28cb6dfac9fca0ba10c-to-f3011ef36357fb88547ef3dc254f824f" style="stroke:#181818;stroke-width:1.0;"/><polygon fill="#181818" points="1040.52,558.23,1049.7865,554.8936,1044.131,554.7716,1044.253,549.116,1040.52,558.23" style="stroke:#181818;stroke-width:1.0;"/></g><!--link 1c7b3f3c4ab8a28cb6dfac9fca0ba10c to bcd37573c61ea13b58946ef45560431a--><g id="link_1c7b3f3c4ab8a28cb6dfac9fca0ba10c_bcd37573c61ea13b58946ef45560431a"><path codeLine="123" d="M1165.13,163.07 C1166.73,173.37 1168.2,184.52 1169,194.89 C1184.58,395.6 1209.85,489.91 1073,637.56 C1032.99,680.73 975.4524,705.9838 932.3524,720.5938 " fill="none" id="1c7b3f3c4ab8a28cb6dfac9fca0ba10c-to-bcd37573c61ea13b58946ef45560431a" style="stroke:#181818;stroke-width:1.0;"/><polygon fill="#181818" points="926.67,722.52,936.4777,723.4189,931.4053,720.9148,933.9095,715.8424,926.67,722.52" style="stroke:#181818;stroke-width:1.0;"/></g><!--link 1c7b3f3c4ab8a28cb6dfac9fca0ba10c to 78d5804380e6cc83b7f9473b169e2a28--><g id="link_1c7b3f3c4ab8a28cb6dfac9fca0ba10c_78d5804380e6cc83b7f9473b169e2a28"><path codeLine="124" d="M1139.23,162.95 C1122.63,197 1101.1588,241.0465 1084.5188,275.1865 " fill="none" id="1c7b3f3c4ab8a28cb6dfac9fca0ba10c-to-78d5804380e6cc83b7f9473b169e2a28" style="stroke:#181818;stroke-width:1.0;"/><polygon fill="#181818" points="1081.89,280.58,1089.4288,274.2423,1084.0807,276.0854,1082.2376,270.7373,1081.89,280.58" style="stroke:#181818;stroke-width:1.0;"/></g><!--link 1c7b3f3c4ab8a28cb6dfac9fca0ba10c to a8300c6470e93fa3cbb4473226d350ad--><g id="link_1c7b3f3c4ab8a28cb6dfac9fca0ba10c_a8300c6470e93fa3cbb4473226d350ad"><path codeLine="125" d="M1158.72,163.36 C1159.13,232.72 1155.79,373.64 1123,407.78 C1088.41,443.8 949.2756,453.8712 871.9656,456.8212 " fill="none" id="1c7b3f3c4ab8a28cb6dfac9fca0ba10c-to-a8300c6470e93fa3cbb4473226d350ad" style="stroke:#181818;stroke-width:1.0;"/><polygon fill="#181818" points="865.97,457.05,875.116,460.7039,870.9664,456.8593,874.8109,452.7097,865.97,457.05" style="stroke:#181818;stroke-width:1.0;"/></g><!--SRC=[hLNBZYCt3BpxAumz3h089OeITTaV2VP0KTJ4oFW1kvtTHP1_3-EU37PW9zs7iGz66oWMgyXYoylByTj-ztrtUDwSH7-NPzj-6kB_NgTVFctbieqzZWwf9mO0DCGCDIXJaQI5kct_tEXnVpeUx31jctOiL51pC0dOY6lADX9HXeH1jhzkdfxiSDrVdfuscytNdw2SiH92DXdIE4g9WarpuX3Ju5PkK3djxe038GGRc97AQCoKYZzrZUGunzw0UZnS9ZbCzxmzWWk2oZdrZ94WKD3OavGU4zGPVf99Vxk35kx4hel1iYfZAwEcWYtaQb4Ytw3ZU7wWDeN1MbGI362fMZ4PkfjI8riWka6lvvTxfEQMQkRC8HGQwjIccVje0phcEbiydULmUP5fTpmyegPHGqsZAyGS0Kl4Yis5Quys2_vZPz_kkR4EviGMns0SXSJ0W3Cq8K4fDdFRvO7DLjtJ1ZLfqjQuIwWk5NmtSas1n-juJ_T8OGJmHIXW5OUWmvEx76FkI23zXjmVkpqmAsXfE52JhvGFH5lkGxGE5UyvWCwiVR_xrwQt3EpbuBzxBpB7e9Em1f989RZrrMUT0eZb75Hgwnw3DwppExnVPcJ9FQKSpNopWrEJHl_K5WYY-fQ_2n0HmQZGUkJENDNxJfepjsWgglDUsFVJyJpT3xO5IIsMI6ZKi8y0eqWVLH963JW7uMmoNSzs7wC-e14uTSqEyEpvg8K3UCnZ2BFDk_rFp7_vzqtpPFkJBvnDylog6sCJtqgB6iC0aOX5b0ArOhvcbTuVZf2Pr7CBnKeTlkE0IEZfT_Rsgbklb-cuVyH-FZtFfDeaKwn2uD4ljGfsQcwsW3DJ3-z8Gq1CekokvKZ684niehrOxXxd_ua-_2E3J5EJw9cDMK8fn1sXaWSn_NT-_K3MLgMN0RKfjZWaKUqMeJGV_QjIUx7pZpUbYxVnS__yPV7uhYopbBVDui5TrytYzVp8CekY5i_gkZABntMTg7LbFgYR9GStYqTfPJTBzsdb-YqTgdLb5jzbwyeilfrkPPOYixBCujuilk_MTREkp0TrixX-wyeiEVWt]--></g></svg>